<svg width="67" height="57" viewBox="0 0 67 57" fill="none" xmlns="http://www.w3.org/2000/svg">
<path d="M30.0596 0.587264L22.8643 2.13792C22.6064 2.19292 22.3751 2.33467 22.209 2.53953C22.043 2.74438 21.9521 2.99998 21.9516 3.2637V15.6468C21.4267 15.4644 20.8747 15.3717 20.319 15.3724C17.8059 15.3724 15.7686 17.2177 15.7686 19.4941C15.7686 21.7704 17.8059 23.6158 20.319 23.6158C22.0461 23.6158 23.7736 22.677 24.4915 21.0764C25.1156 19.6854 24.8694 18.0132 24.8694 16.5213V6.6222L34.7785 4.32069C34.7445 1.87242 32.4649 0.0689634 30.0597 0.587331L30.0596 0.587264Z" fill="#FACD66"/>
<path d="M30.0561 11.9985V25.2561C30.056 25.2877 30.0484 25.3188 30.0342 25.3471C30.0199 25.3753 29.9992 25.3998 29.9738 25.4186C29.9484 25.4375 29.919 25.4502 29.8879 25.4557C29.8567 25.4612 29.8247 25.4594 29.7944 25.4504C29.3486 25.323 28.8871 25.2586 28.4235 25.259C25.9103 25.259 23.873 27.1044 23.873 29.3807C23.873 31.657 25.9103 33.5024 28.4235 33.5024C30.1506 33.5024 31.8781 32.5636 32.596 30.963C33.22 29.572 32.9739 27.8998 32.9739 26.408V15.625C32.974 15.5486 33 15.4745 33.0477 15.4147C33.0953 15.355 33.1617 15.3132 33.2362 15.296L42.883 13.0555C42.9327 13.0438 42.9844 13.0435 43.0342 13.0545C43.084 13.0656 43.1307 13.0878 43.1708 13.1194C43.2108 13.151 43.2433 13.1913 43.2656 13.2372C43.2879 13.2831 43.2996 13.3334 43.2998 13.3844V24.2425C43.2996 24.2741 43.2921 24.3053 43.2778 24.3335C43.2636 24.3617 43.2429 24.3862 43.2175 24.4051C43.1921 24.424 43.1627 24.4367 43.1315 24.4422C43.1004 24.4477 43.0684 24.4459 43.0381 24.4369C42.5923 24.3095 42.1308 24.245 41.6671 24.2454C39.154 24.2454 37.1167 26.0908 37.1167 28.3671C37.1167 30.6436 39.154 32.4889 41.6671 32.4889C43.1879 32.4889 44.7001 31.7015 45.553 30.4135C46.3795 29.1653 46.218 27.8542 46.2175 26.4439C46.2167 23.9287 46.2167 21.4135 46.2175 18.8983V8.84312C46.217 8.69136 46.1825 8.54165 46.1167 8.40493C46.0508 8.26822 45.9552 8.14796 45.8369 8.05299C45.7185 7.95801 45.5804 7.89072 45.4327 7.85603C45.2849 7.82135 45.1313 7.82015 44.9831 7.85253L30.9688 10.8727C30.7109 10.9277 30.4796 11.0694 30.3135 11.2743C30.1475 11.4792 30.0566 11.7348 30.0561 11.9985Z" fill="#A4C7C6"/>
<path d="M41.308 13.3844C41.3078 13.3334 41.2961 13.2831 41.2738 13.2372C41.2515 13.1913 41.2191 13.151 41.179 13.1194C41.1389 13.0878 41.0923 13.0656 41.0424 13.0545C40.9926 13.0435 40.9409 13.0438 40.8912 13.0555L31.2444 15.296C31.17 15.3132 31.1035 15.355 31.0559 15.4147C31.0082 15.4745 30.9822 15.5486 30.9821 15.625V26.408C30.9821 27.8998 31.2282 29.572 30.6043 30.9631C30.0241 32.2564 28.7846 33.1173 27.4189 33.4003C27.7496 33.4681 28.0863 33.5023 28.4239 33.5024C30.151 33.5024 31.8785 32.5636 32.5964 30.963C33.2204 29.572 32.9743 27.8998 32.9743 26.408V15.625C32.9744 15.5486 33.0004 15.4745 33.0481 15.4147C33.0957 15.355 33.1621 15.3132 33.2366 15.296L41.308 13.4214V13.3844ZM28.0623 25.2731C27.8491 25.2882 27.637 25.317 27.4275 25.3593C27.5545 25.3852 27.6799 25.4152 27.8026 25.4504C27.8315 25.4589 27.8619 25.4608 27.8916 25.4561C27.9213 25.4514 27.9496 25.4402 27.9745 25.4232C27.9993 25.4063 28.0201 25.384 28.0353 25.358C28.0505 25.3321 28.0597 25.3031 28.0623 25.2731V25.2731ZM46.2179 26.4439C46.2171 23.9287 46.2171 21.4135 46.2179 18.8983V8.84312C46.2174 8.69136 46.183 8.54165 46.1171 8.40493C46.0512 8.26822 45.9556 8.14796 45.8373 8.05299C45.7189 7.95801 45.5808 7.89072 45.4331 7.85603C45.2853 7.82135 45.1317 7.82015 44.9835 7.85253L43.8856 8.08914C43.9926 8.18344 44.0783 8.29946 44.1369 8.42947C44.1956 8.55948 44.2258 8.70049 44.2257 8.84312V26.4439C44.2262 27.8541 44.3877 29.1653 43.5612 30.4135C42.8792 31.4212 41.8344 32.1268 40.6449 32.3831C40.9812 32.4533 41.3239 32.4887 41.6675 32.4889C43.1882 32.4889 44.7005 31.7015 45.5534 30.4135C46.3799 29.1653 46.2184 27.8542 46.2179 26.4439ZM41.306 24.2596C41.0927 24.2747 40.8807 24.3035 40.6712 24.3458C40.7982 24.3716 40.9235 24.4017 41.0463 24.4369C41.0752 24.4454 41.1056 24.4473 41.1353 24.4426C41.165 24.438 41.1933 24.4267 41.2181 24.4098C41.243 24.3928 41.2637 24.3705 41.2789 24.3445C41.2941 24.3186 41.3033 24.2896 41.306 24.2596Z" fill="#9CBCBB"/>
<path d="M6 41.8C6.768 41.8 7.45067 41.944 8.048 42.232C8.64533 42.52 9.14667 42.9253 9.552 43.448C9.968 43.96 10.2773 44.5573 10.48 45.24C10.6933 45.912 10.8 46.632 10.8 47.4C10.8 48.4347 10.6133 49.3787 10.24 50.232C9.86667 51.0747 9.32267 51.7467 8.608 52.248C7.904 52.7493 7.03467 53 6 53H2.176C1.89867 53 1.664 52.9093 1.472 52.728C1.29067 52.536 1.2 52.3013 1.2 52.024V42.776C1.2 42.4987 1.29067 42.2693 1.472 42.088C1.664 41.896 1.89867 41.8 2.176 41.8H6ZM5.84 51.16C6.512 51.16 7.06133 50.9893 7.488 50.648C7.91467 50.296 8.224 49.8373 8.416 49.272C8.61867 48.696 8.72 48.072 8.72 47.4C8.72 46.8987 8.66133 46.424 8.544 45.976C8.43733 45.5173 8.26667 45.1173 8.032 44.776C7.79733 44.424 7.49867 44.1467 7.136 43.944C6.77333 43.7413 6.34133 43.64 5.84 43.64H3.04L3.2 43.496V51.336L3.104 51.16H5.84ZM16.6345 53.16C15.7278 53.16 14.9385 52.9733 14.2665 52.6C13.6052 52.216 13.0932 51.6987 12.7305 51.048C12.3785 50.3973 12.2025 49.6613 12.2025 48.84C12.2025 47.88 12.3945 47.064 12.7785 46.392C13.1732 45.7093 13.6852 45.1867 14.3145 44.824C14.9438 44.4613 15.6105 44.28 16.3145 44.28C16.8585 44.28 17.3705 44.392 17.8505 44.616C18.3412 44.84 18.7732 45.1493 19.1465 45.544C19.5198 45.928 19.8132 46.376 20.0265 46.888C20.2505 47.4 20.3625 47.944 20.3625 48.52C20.3518 48.776 20.2505 48.984 20.0585 49.144C19.8665 49.304 19.6425 49.384 19.3865 49.384H13.2745L12.7945 47.784H18.6665L18.3145 48.104V47.672C18.2932 47.3627 18.1812 47.0853 17.9785 46.84C17.7865 46.5947 17.5412 46.4027 17.2425 46.264C16.9545 46.1147 16.6452 46.04 16.3145 46.04C15.9945 46.04 15.6958 46.0827 15.4185 46.168C15.1412 46.2533 14.9012 46.3973 14.6985 46.6C14.4958 46.8027 14.3358 47.0747 14.2185 47.416C14.1012 47.7573 14.0425 48.1893 14.0425 48.712C14.0425 49.288 14.1598 49.7787 14.3945 50.184C14.6398 50.5787 14.9492 50.8827 15.3225 51.096C15.7065 51.2987 16.1118 51.4 16.5385 51.4C16.9332 51.4 17.2478 51.368 17.4825 51.304C17.7172 51.24 17.9038 51.1653 18.0425 51.08C18.1918 50.984 18.3252 50.904 18.4425 50.84C18.6345 50.744 18.8158 50.696 18.9865 50.696C19.2212 50.696 19.4132 50.776 19.5625 50.936C19.7225 51.096 19.8025 51.2827 19.8025 51.496C19.8025 51.784 19.6532 52.0453 19.3545 52.28C19.0772 52.5147 18.6878 52.7227 18.1865 52.904C17.6852 53.0747 17.1678 53.16 16.6345 53.16ZM23.16 53C22.8827 53 22.6533 52.9093 22.472 52.728C22.2907 52.536 22.2 52.3013 22.2 52.024V42.136C22.2 41.8587 22.2907 41.6293 22.472 41.448C22.6533 41.256 22.8827 41.16 23.16 41.16C23.4373 41.16 23.6667 41.256 23.848 41.448C24.0293 41.6293 24.12 41.8587 24.12 42.136V52.024C24.12 52.3013 24.0293 52.536 23.848 52.728C23.6667 52.9093 23.4373 53 23.16 53ZM28.248 44.44C28.4933 44.44 28.7067 44.5413 28.888 44.744C29.0693 44.9467 29.16 45.144 29.16 45.336C29.16 45.592 29.032 45.832 28.776 46.056L23.96 50.488L23.88 48.28L27.544 44.744C27.7467 44.5413 27.9813 44.44 28.248 44.44ZM28.488 52.984C28.2107 52.984 27.976 52.8773 27.784 52.664L24.824 49.528L26.28 48.184L29.16 51.32C29.3627 51.5333 29.464 51.7733 29.464 52.04C29.464 52.3173 29.352 52.5467 29.128 52.728C28.9147 52.8987 28.7013 52.984 28.488 52.984ZM38.0949 44.28C38.3722 44.28 38.6015 44.3707 38.7829 44.552C38.9642 44.7333 39.0549 44.968 39.0549 45.256V52.024C39.0549 52.3013 38.9642 52.536 38.7829 52.728C38.6015 52.9093 38.3722 53 38.0949 53C37.8175 53 37.5882 52.9093 37.4069 52.728C37.2255 52.536 37.1349 52.3013 37.1349 52.024V51.24L37.4869 51.384C37.4869 51.5227 37.4122 51.6933 37.2629 51.896C37.1135 52.088 36.9109 52.28 36.6549 52.472C36.3989 52.664 36.0949 52.8293 35.7429 52.968C35.4015 53.096 35.0282 53.16 34.6229 53.16C33.8869 53.16 33.2202 52.9733 32.6229 52.6C32.0255 52.216 31.5509 51.6933 31.1989 51.032C30.8575 50.36 30.6869 49.592 30.6869 48.728C30.6869 47.8533 30.8575 47.0853 31.1989 46.424C31.5509 45.752 32.0202 45.2293 32.6069 44.856C33.1935 44.472 33.8442 44.28 34.5589 44.28C35.0175 44.28 35.4389 44.3493 35.8229 44.488C36.2069 44.6267 36.5375 44.8027 36.8149 45.016C37.1029 45.2293 37.3215 45.448 37.4709 45.672C37.6309 45.8853 37.7109 46.0667 37.7109 46.216L37.1349 46.424V45.256C37.1349 44.9787 37.2255 44.7493 37.4069 44.568C37.5882 44.376 37.8175 44.28 38.0949 44.28ZM34.8629 51.4C35.3322 51.4 35.7429 51.2827 36.0949 51.048C36.4469 50.8133 36.7189 50.4933 36.9109 50.088C37.1135 49.6827 37.2149 49.2293 37.2149 48.728C37.2149 48.216 37.1135 47.7573 36.9109 47.352C36.7189 46.9467 36.4469 46.6267 36.0949 46.392C35.7429 46.1573 35.3322 46.04 34.8629 46.04C34.4042 46.04 33.9989 46.1573 33.6469 46.392C33.2949 46.6267 33.0175 46.9467 32.8149 47.352C32.6229 47.7573 32.5269 48.216 32.5269 48.728C32.5269 49.2293 32.6229 49.6827 32.8149 50.088C33.0175 50.4933 33.2949 50.8133 33.6469 51.048C33.9989 51.2827 34.4042 51.4 34.8629 51.4Z" fill="#FACD66"/>
<path d="M41.136 44.6H44.928C45.184 44.6 45.3973 44.6853 45.568 44.856C45.7387 45.0267 45.824 45.24 45.824 45.496C45.824 45.7413 45.7387 45.9493 45.568 46.12C45.3973 46.28 45.184 46.36 44.928 46.36H41.136C40.88 46.36 40.6667 46.2747 40.496 46.104C40.3253 45.9333 40.24 45.72 40.24 45.464C40.24 45.2187 40.3253 45.016 40.496 44.856C40.6667 44.6853 40.88 44.6 41.136 44.6ZM42.848 42.6C43.1253 42.6 43.3493 42.696 43.52 42.888C43.7013 43.0693 43.792 43.2987 43.792 43.576V50.696C43.792 50.8453 43.8187 50.968 43.872 51.064C43.936 51.16 44.016 51.2293 44.112 51.272C44.2187 51.3147 44.3307 51.336 44.448 51.336C44.576 51.336 44.6933 51.3147 44.8 51.272C44.9067 51.2187 45.0293 51.192 45.168 51.192C45.3173 51.192 45.4507 51.2613 45.568 51.4C45.696 51.5387 45.76 51.7307 45.76 51.976C45.76 52.2747 45.5947 52.52 45.264 52.712C44.944 52.904 44.5973 53 44.224 53C44 53 43.7493 52.984 43.472 52.952C43.2053 52.9093 42.9493 52.8187 42.704 52.68C42.4693 52.5307 42.272 52.3067 42.112 52.008C41.952 51.7093 41.872 51.2987 41.872 50.776V43.576C41.872 43.2987 41.9627 43.0693 42.144 42.888C42.336 42.696 42.5707 42.6 42.848 42.6ZM49.3949 52.024C49.3949 52.3013 49.3042 52.536 49.1229 52.728C48.9415 52.9093 48.7122 53 48.4349 53C48.1575 53 47.9282 52.9093 47.7469 52.728C47.5655 52.536 47.4749 52.3013 47.4749 52.024V45.416C47.4749 45.1387 47.5655 44.9093 47.7469 44.728C47.9282 44.536 48.1575 44.44 48.4349 44.44C48.7122 44.44 48.9415 44.536 49.1229 44.728C49.3042 44.9093 49.3949 45.1387 49.3949 45.416V52.024ZM48.4189 43.4C48.0562 43.4 47.8002 43.3413 47.6509 43.224C47.5015 43.1067 47.4269 42.8987 47.4269 42.6V42.296C47.4269 41.9867 47.5069 41.7787 47.6669 41.672C47.8375 41.5547 48.0935 41.496 48.4349 41.496C48.8082 41.496 49.0695 41.5547 49.2189 41.672C49.3682 41.7893 49.4429 41.9973 49.4429 42.296V42.6C49.4429 42.9093 49.3629 43.1227 49.2029 43.24C49.0429 43.3467 48.7815 43.4 48.4189 43.4ZM55.7681 41.16C56.0028 41.16 56.2321 41.192 56.4561 41.256C56.6801 41.32 56.8668 41.4267 57.0161 41.576C57.1655 41.7147 57.2401 41.9013 57.2401 42.136C57.2401 42.4027 57.1601 42.616 57.0001 42.776C56.8508 42.9253 56.6748 43 56.4721 43C56.3761 43 56.2321 42.9787 56.0401 42.936C55.8481 42.8827 55.6615 42.856 55.4801 42.856C55.2135 42.856 55.0055 42.9147 54.8561 43.032C54.7175 43.1493 54.6215 43.288 54.5681 43.448C54.5148 43.5973 54.4881 43.7307 54.4881 43.848V52.024C54.4881 52.3013 54.3975 52.536 54.2161 52.728C54.0348 52.9093 53.8055 53 53.5281 53C53.2508 53 53.0215 52.9093 52.8401 52.728C52.6588 52.536 52.5681 52.3013 52.5681 52.024V43.864C52.5681 43.1067 52.8348 42.4667 53.3681 41.944C53.9015 41.4213 54.7015 41.16 55.7681 41.16ZM55.9441 44.6C56.2001 44.6 56.4135 44.6853 56.5841 44.856C56.7548 45.016 56.8401 45.224 56.8401 45.48C56.8401 45.736 56.7548 45.9493 56.5841 46.12C56.4135 46.28 56.2001 46.36 55.9441 46.36H51.7041C51.4481 46.36 51.2348 46.28 51.0641 46.12C50.8935 45.9493 50.8081 45.736 50.8081 45.48C50.8081 45.224 50.8935 45.016 51.0641 44.856C51.2348 44.6853 51.4481 44.6 51.7041 44.6H55.9441ZM64.7045 44.44C64.9818 44.44 65.2112 44.536 65.3925 44.728C65.5738 44.9093 65.6645 45.1387 65.6645 45.416V52.216C65.6645 53.1973 65.4778 53.976 65.1045 54.552C64.7418 55.1387 64.2512 55.56 63.6325 55.816C63.0138 56.072 62.3205 56.2 61.5525 56.2C61.2112 56.2 60.8485 56.1733 60.4645 56.12C60.0805 56.0667 59.7658 55.9867 59.5205 55.88C59.2005 55.7413 58.9765 55.5653 58.8485 55.352C58.7312 55.1493 58.7098 54.9307 58.7845 54.696C58.8805 54.3867 59.0352 54.1733 59.2485 54.056C59.4618 53.9493 59.6858 53.9387 59.9205 54.024C60.0912 54.0773 60.3152 54.1573 60.5925 54.264C60.8698 54.3813 61.1898 54.44 61.5525 54.44C62.0432 54.44 62.4485 54.3707 62.7685 54.232C63.0992 54.104 63.3445 53.88 63.5045 53.56C63.6752 53.2507 63.7605 52.824 63.7605 52.28V51.208L64.0965 51.592C63.9152 51.944 63.6858 52.2373 63.4085 52.472C63.1418 52.696 62.8218 52.8667 62.4485 52.984C62.0752 53.1013 61.6485 53.16 61.1685 53.16C60.6032 53.16 60.1072 53.032 59.6805 52.776C59.2645 52.5093 58.9392 52.1467 58.7045 51.688C58.4698 51.2187 58.3525 50.6853 58.3525 50.088V45.416C58.3525 45.1387 58.4432 44.9093 58.6245 44.728C58.8058 44.536 59.0352 44.44 59.3125 44.44C59.5898 44.44 59.8192 44.536 60.0005 44.728C60.1818 44.9093 60.2725 45.1387 60.2725 45.416V49.512C60.2725 50.2053 60.4218 50.696 60.7205 50.984C61.0298 51.2613 61.4565 51.4 62.0005 51.4C62.3738 51.4 62.6885 51.3307 62.9445 51.192C63.2005 51.0427 63.3978 50.8293 63.5365 50.552C63.6752 50.264 63.7445 49.9173 63.7445 49.512V45.416C63.7445 45.1387 63.8352 44.9093 64.0165 44.728C64.1978 44.536 64.4272 44.44 64.7045 44.44Z" fill="#A4C7C6"/>
</svg>
